<svg width="137" height="55" viewBox="0 0 137 55" fill="none" xmlns="http://www.w3.org/2000/svg">
	<g clip-path="url(#clip0_413_2452)">
		<path d="M22.4815 35.0217C22.4609 34.9714 22.4368 34.9226 22.4092 34.8758C22.19 34.4366 21.9468 34.0006 21.6794 33.5677C20.1095 31.0294 17.7539 28.7106 14.955 27.3493C14.91 27.3261 14.8636 27.303 14.8186 27.2825C14.4983 27.1421 14.1519 27.0708 13.8022 27.0733C13.4525 27.0758 13.1072 27.152 12.7889 27.2969C12.4706 27.4418 12.1865 27.6522 11.955 27.9144C11.7235 28.1765 11.5499 28.4846 11.4454 28.8183C9.81712 33.98 9.05615 39.3759 9.1935 44.7865C9.19353 45.0238 9.27414 45.2541 9.42213 45.4396C9.57012 45.6251 9.77672 45.7549 10.0081 45.8077C10.2395 45.8605 10.4819 45.8331 10.6957 45.7301C10.9095 45.6271 11.082 45.4546 11.1849 45.2407C12.9581 41.7257 16.2617 38.4017 20.2704 37.1155C20.6671 36.9887 21.07 36.8821 21.4776 36.7963C21.5236 36.7905 21.5692 36.7814 21.614 36.769C21.7933 36.723 21.9607 36.6389 22.1048 36.5225C22.2488 36.4061 22.3661 36.2601 22.4488 36.0944C22.5314 35.9287 22.5775 35.7472 22.5839 35.5621C22.5902 35.377 22.5567 35.1927 22.4855 35.0217H22.4815Z" fill="url(#paint0_linear_413_2452)" />
		<path d="M36.2263 28.8197C36.1223 28.4857 35.9491 28.1774 35.7179 27.915C35.4867 27.6525 35.2027 27.4417 34.8845 27.2964C34.5663 27.1511 34.2211 27.0745 33.8713 27.0716C33.5215 27.0688 33.1751 27.1397 32.8546 27.2798C32.8068 27.3002 32.7618 27.3221 32.7182 27.3466C29.922 28.7106 27.5664 31.0294 25.9937 33.565C25.7282 33.9951 25.485 34.4311 25.264 34.8731C25.2371 34.9196 25.2134 34.9679 25.1931 35.0177C25.1221 35.1884 25.0887 35.3724 25.095 35.5571C25.1013 35.7419 25.1472 35.9232 25.2295 36.0887C25.3119 36.2542 25.4288 36.4001 25.5724 36.5165C25.716 36.6329 25.883 36.7172 26.0619 36.7636C26.1066 36.7761 26.1522 36.7852 26.1983 36.7908C26.6058 36.8767 27.0087 36.9832 27.4054 37.11C31.4128 38.3963 34.7191 41.7203 36.491 45.2353C36.5943 45.4479 36.7663 45.6195 36.9793 45.7222C37.1912 45.8248 37.4317 45.8523 37.6612 45.8C37.8928 45.7483 38.1 45.6195 38.2487 45.4346C38.3974 45.2497 38.4788 45.0197 38.4796 44.7824C38.6162 39.3735 37.8548 33.9794 36.2263 28.8197Z" fill="url(#paint1_linear_413_2452)" />
		<path d="M32.7359 20.5717C30.5603 16.512 27.82 12.7811 24.5969 9.49072L24.5751 9.46889C24.3795 9.27399 24.1147 9.16455 23.8386 9.16455C23.5625 9.16455 23.2976 9.27399 23.102 9.46889C19.8652 12.7761 17.116 16.5274 14.9372 20.6099L14.9086 20.6631C14.7567 20.9605 14.6664 21.2854 14.6429 21.6184C14.6194 21.9515 14.6632 22.2859 14.7718 22.6016C14.8804 22.9173 15.0515 23.2079 15.2749 23.456C15.4983 23.7042 15.7694 23.9048 16.072 24.0458V24.0526C18.6636 25.2311 20.9701 27.0534 22.8442 29.1676C22.9652 29.3006 23.1126 29.4069 23.277 29.4797C23.4414 29.5524 23.6192 29.59 23.799 29.59C23.9788 29.59 24.1566 29.5524 24.321 29.4797C24.4855 29.4069 24.6329 29.3006 24.7538 29.1676C26.6238 27.0343 28.9399 25.2052 31.541 24.0294L31.6037 24.0022C32.066 23.7859 32.4504 23.4325 32.7047 22.9901C32.959 22.5476 33.0709 22.0375 33.025 21.5293C32.9955 21.1921 32.8966 20.8647 32.7345 20.5676L32.7359 20.5717Z" fill="url(#paint2_linear_413_2452)" />
		<path d="M56.2916 32.8885L54.2633 29.2057H53.6945V32.8885H51.3198V23.1387H55.3054C55.9812 23.1209 56.6519 23.261 57.2641 23.5479C57.7773 23.7842 58.2057 24.1722 58.4917 24.6596C58.7629 25.1324 58.9019 25.6695 58.894 26.2145C58.9019 26.8381 58.7071 27.4475 58.3389 27.9509C57.9752 28.4592 57.4378 28.8202 56.7267 29.0339L58.9772 32.8953L56.2916 32.8885ZM53.7 27.528H55.1717C55.6073 27.528 55.9315 27.4212 56.1442 27.2075C56.2595 27.0887 56.3486 26.9471 56.4059 26.7918C56.4632 26.6366 56.4874 26.4711 56.4771 26.3059C56.4859 26.1448 56.4608 25.9836 56.4035 25.8328C56.3462 25.6819 56.2579 25.5448 56.1442 25.4302C55.9315 25.2174 55.6073 25.111 55.1717 25.111H53.6945L53.7 27.528Z" fill="#331110" />
		<path d="M63.9069 33.0003C63.1919 33.0108 62.4856 32.8435 61.8513 32.5133C61.2551 32.1932 60.7608 31.7121 60.4246 31.1248C60.0701 30.4786 59.8927 29.7502 59.9104 29.0133C59.8943 28.2797 60.0767 27.5554 60.4382 26.9169C60.7753 26.3203 61.2767 25.8331 61.8827 25.5134C62.5209 25.1941 63.2246 25.0278 63.9382 25.0278C64.6518 25.0278 65.3556 25.1941 65.9938 25.5134C66.5998 25.8331 67.1012 26.3203 67.4382 26.9169C67.787 27.5638 67.9684 28.2877 67.966 29.0226C67.9637 29.7575 67.7775 30.4802 67.4246 31.1248C67.0815 31.7182 66.5748 32.2002 65.9651 32.5133C65.3301 32.844 64.6227 33.0114 63.9069 33.0003ZM63.9069 30.9447C64.1239 30.948 64.3392 30.9051 64.5384 30.8188C64.7376 30.7325 64.9161 30.6048 65.0622 30.4442C65.3859 30.1114 65.5477 29.6344 65.5477 29.0133C65.5477 28.3923 65.3904 27.9153 65.0758 27.5825C64.9294 27.425 64.7521 27.2994 64.5549 27.2136C64.3578 27.1277 64.1451 27.0833 63.93 27.0833C63.715 27.0833 63.5023 27.1277 63.3052 27.2136C63.108 27.2994 62.9307 27.425 62.7843 27.5825C62.4788 27.9072 62.326 28.3841 62.326 29.0133C62.326 29.6426 62.4738 30.1195 62.7693 30.4442C62.9115 30.6048 63.0868 30.7327 63.2832 30.8192C63.4796 30.9056 63.6923 30.9484 63.9069 30.9447Z" fill="#331110" />
		<path d="M68.7448 29.0133C68.728 28.2799 68.8955 27.5539 69.2317 26.9019C69.5481 26.3173 70.0252 25.8354 70.6066 25.5133C71.2302 25.1822 71.9276 25.0151 72.6335 25.0278C73.6056 25.0278 74.4158 25.2824 75.0641 25.7916C75.7125 26.3008 76.1431 27.0183 76.3558 27.944H73.8338C73.621 27.352 73.2091 27.0556 72.5981 27.0546C72.3956 27.0488 72.1948 27.0926 72.0131 27.1823C71.8315 27.2719 71.6745 27.4046 71.556 27.5689C71.2968 27.9026 71.1672 28.3841 71.1672 29.0133C71.1672 29.6426 71.2968 30.1286 71.556 30.4714C71.6766 30.6326 71.8343 30.7622 72.0157 30.8493C72.1971 30.9365 72.3969 30.9786 72.5981 30.972C73.2091 30.972 73.621 30.6756 73.8338 30.0827H76.3613C76.1969 30.9258 75.7393 31.6835 75.0696 32.2214C74.4122 32.7397 73.6019 32.9994 72.639 33.0003C71.9329 33.0131 71.2353 32.8455 70.6121 32.5133C70.0303 32.1916 69.5531 31.7097 69.2372 31.1248C68.8987 30.4734 68.7294 29.7473 68.7448 29.0133Z" fill="#331110" />
		<path d="M82.3686 32.8885L80.0075 29.6381V32.8885H77.6328V22.6108H80.0075V28.2918L82.3549 25.1383H85.2848L82.063 29.027L85.3134 32.8885H82.3686Z" fill="#331110" />
		<path d="M93.5233 28.8891C93.5228 29.1212 93.5087 29.353 93.481 29.5834H88.1137C88.1501 30.0654 88.3028 30.4354 88.572 30.6937C88.8492 30.944 89.212 31.0783 89.5854 31.0688C90.1792 31.0688 90.5911 30.8187 90.8212 30.3186H93.35C93.216 30.83 92.9694 31.305 92.6281 31.7088C92.2869 32.1126 91.8596 32.435 91.3777 32.6524C90.8397 32.8901 90.2567 33.0088 89.6686 33.0002C88.9626 33.0131 88.2649 32.8455 87.6418 32.5132C87.0539 32.1946 86.5711 31.7123 86.2518 31.1247C85.9074 30.4753 85.7355 29.7482 85.7526 29.0133C85.7361 28.28 85.903 27.5542 86.2382 26.9018C86.5577 26.3149 87.0399 25.8328 87.6267 25.5133C88.2565 25.1805 88.9606 25.0134 89.6727 25.0277C90.3648 25.0185 91.0481 25.1831 91.6601 25.5065C92.2367 25.8126 92.711 26.2811 93.024 26.8541C93.367 27.4766 93.5392 28.1786 93.5233 28.8891ZM91.0926 28.2631C91.1 28.0804 91.0664 27.8985 90.9945 27.7304C90.9225 27.5624 90.8139 27.4126 90.6766 27.2919C90.3848 27.0605 90.0239 26.9333 89.6514 26.9306C89.279 26.9278 88.9163 27.0498 88.6211 27.2769C88.3395 27.5336 88.1615 27.8843 88.1205 28.2631H91.0926Z" fill="#331110" />
		<path d="M99.0951 30.8751V32.8883H97.8866C97.0264 32.8883 96.3553 32.6801 95.8733 32.2636C95.3914 31.8471 95.1509 31.1574 95.1518 30.1944V27.1105H94.2065V25.1381H95.1518V23.249H97.5251V25.1381H99.0801V27.1105H97.5251V30.2217C97.5163 30.3122 97.5265 30.4034 97.5552 30.4897C97.5839 30.5759 97.6303 30.6552 97.6915 30.7223C97.852 30.8388 98.0492 30.8931 98.2467 30.8751H99.0951Z" fill="#331110" />
		<path d="M103.947 32.9852C103.29 32.9967 102.637 32.879 102.026 32.6387C101.486 32.4267 101.015 32.0711 100.662 31.6103C100.321 31.1323 100.137 30.5605 100.134 29.9735H102.663C102.679 30.2886 102.813 30.5861 103.038 30.8069C103.273 30.9973 103.57 31.0945 103.872 31.0797C104.168 31.0965 104.461 31.0134 104.705 30.8437C104.806 30.7618 104.886 30.6574 104.939 30.539C104.992 30.4206 105.016 30.2914 105.011 30.1617C105.014 30.05 104.993 29.939 104.95 29.836C104.906 29.7329 104.841 29.6403 104.76 29.5643C104.587 29.3974 104.384 29.2654 104.162 29.1756C103.836 29.0409 103.502 28.9253 103.162 28.8291C102.635 28.6734 102.119 28.4782 101.621 28.2453C101.215 28.0443 100.862 27.7493 100.593 27.3847C100.306 27.0055 100.163 26.5099 100.163 25.8979C100.163 24.9886 100.492 24.2802 101.149 23.7728C101.807 23.2654 102.663 23.0063 103.719 22.9954C104.793 22.9954 105.657 23.2545 106.31 23.7728C106.964 24.2911 107.32 25.0054 107.377 25.9157H104.807C104.805 25.7754 104.773 25.6373 104.713 25.5105C104.653 25.3837 104.566 25.2712 104.459 25.1805C104.23 24.9914 103.938 24.8942 103.641 24.9077C103.388 24.8961 103.14 24.9804 102.947 25.1436C102.856 25.2255 102.786 25.3269 102.74 25.44C102.694 25.5532 102.675 25.6753 102.684 25.797C102.682 25.9489 102.723 26.0983 102.801 26.2284C102.88 26.3585 102.993 26.4642 103.128 26.5335C103.57 26.7708 104.035 26.9614 104.517 27.1023C105.039 27.272 105.549 27.4762 106.044 27.7134C106.448 27.9128 106.8 28.2027 107.073 28.5604C107.373 28.9753 107.525 29.4795 107.503 29.9912C107.508 30.5268 107.359 31.0525 107.073 31.5053C106.775 31.9754 106.349 32.3511 105.845 32.5883C105.252 32.8666 104.602 33.0026 103.947 32.9852Z" fill="#331110" />
		<path d="M112.491 33.0003C111.776 33.0109 111.069 32.8436 110.435 32.5133C109.837 32.1937 109.342 31.7125 109.004 31.1248C108.651 30.4782 108.474 29.75 108.491 29.0133C108.476 28.28 108.658 27.5559 109.018 26.9169C109.355 26.3206 109.857 25.8335 110.462 25.5134C111.101 25.1941 111.804 25.0278 112.518 25.0278C113.231 25.0278 113.935 25.1941 114.573 25.5134C115.18 25.8324 115.682 26.3197 116.018 26.9169C116.367 27.5638 116.548 28.2877 116.546 29.0226C116.543 29.7575 116.357 30.4802 116.004 31.1248C115.662 31.7181 115.155 32.2001 114.546 32.5133C113.912 32.8436 113.206 33.0109 112.491 33.0003ZM112.491 30.9447C112.707 30.9479 112.922 30.9049 113.121 30.8186C113.32 30.7323 113.498 30.6046 113.643 30.4442C113.968 30.1114 114.13 29.6344 114.13 29.0133C114.13 28.3923 113.972 27.9153 113.657 27.5825C113.514 27.4218 113.339 27.2939 113.142 27.2077C112.946 27.1215 112.733 27.0791 112.518 27.0833C112.301 27.0783 112.086 27.1203 111.887 27.2065C111.688 27.2927 111.51 27.421 111.365 27.5825C111.06 27.9072 110.907 28.3841 110.907 29.0133C110.907 29.6426 111.055 30.1195 111.352 30.4442C111.494 30.605 111.67 30.733 111.866 30.8194C112.063 30.9059 112.276 30.9486 112.491 30.9447Z" fill="#331110" />
		<path d="M121.695 27.1106H120.417V32.8884H118.042V27.1106H117.181V25.1383H118.042V24.916C118.042 23.963 118.315 23.241 118.86 22.7499C119.406 22.2589 120.207 22.0088 121.264 21.9997C121.393 21.9977 121.523 22.0022 121.652 22.0134V24.028C121.198 23.9994 120.879 24.0648 120.698 24.2217C120.516 24.3785 120.425 24.6622 120.425 25.0687V25.1383H121.703L121.695 27.1106Z" fill="#331110" />
		<path d="M127.13 30.8751V32.8883H125.922C125.061 32.8883 124.39 32.6801 123.908 32.2636C123.427 31.8471 123.186 31.1574 123.186 30.1944V27.1105H122.242V25.1381H123.186V23.249H125.562V25.1381H127.123V27.1105H125.568V30.2217C125.56 30.3122 125.57 30.4034 125.599 30.4897C125.627 30.5759 125.674 30.6552 125.735 30.7223C125.895 30.8388 126.093 30.8931 126.29 30.8751H127.13Z" fill="#331110" />
	</g>
	<defs>
		<linearGradient id="paint0_linear_413_2452" x1="15.8812" y1="27.0732" x2="15.8812" y2="45.8339" gradientUnits="userSpaceOnUse">
			<stop stop-color="#D66300" />
			<stop offset="1" stop-color="#FFA220" />
		</linearGradient>
		<linearGradient id="paint1_linear_413_2452" x1="31.7947" y1="27.0715" x2="31.7947" y2="45.8259" gradientUnits="userSpaceOnUse">
			<stop stop-color="#D66300" />
			<stop offset="1" stop-color="#FFA220" />
		</linearGradient>
		<linearGradient id="paint2_linear_413_2452" x1="23.8359" y1="9.16455" x2="23.8359" y2="29.59" gradientUnits="userSpaceOnUse">
			<stop stop-color="#D66300" />
			<stop offset="1" stop-color="#FFA220" />
		</linearGradient>
		<clipPath id="clip0_413_2452">
			<rect width="136.399" height="55" fill="white" />
		</clipPath>
	</defs>
</svg>
