<svg width="149" height="60" viewBox="0 0 149 60" fill="none" xmlns="http://www.w3.org/2000/svg">
<g clip-path="url(#clip0_549_1926)">
<path d="M24.5249 38.2055C24.5025 38.1506 24.4761 38.0974 24.446 38.0463C24.2069 37.5672 23.9416 37.0915 23.6499 36.6193C21.9373 33.8502 19.3675 31.3206 16.3142 29.8356C16.2651 29.8103 16.2145 29.785 16.1654 29.7627C15.8159 29.6095 15.4381 29.5318 15.0566 29.5345C14.6751 29.5372 14.2984 29.6203 13.9512 29.7784C13.604 29.9365 13.294 30.166 13.0414 30.452C12.7889 30.738 12.5995 31.074 12.4856 31.4382C10.7092 37.069 9.87908 42.9555 10.0289 48.858C10.029 49.1169 10.1169 49.3681 10.2783 49.5705C10.4398 49.7729 10.6652 49.9144 10.9176 49.972C11.17 50.0296 11.4344 49.9997 11.6677 49.8874C11.9009 49.775 12.0891 49.5868 12.2014 49.3535C14.1358 45.519 17.7397 41.8927 22.1128 40.4896C22.5456 40.3513 22.9851 40.235 23.4297 40.1414C23.48 40.1351 23.5297 40.1252 23.5785 40.1116C23.7742 40.0614 23.9568 39.9697 24.1139 39.8427C24.2711 39.7158 24.399 39.5565 24.4892 39.3757C24.5794 39.1949 24.6297 38.9969 24.6366 38.795C24.6435 38.5931 24.6069 38.3921 24.5293 38.2055H24.5249Z" fill="#F3EEEA"/>
<path d="M39.5196 31.4396C39.4061 31.0752 39.2171 30.7389 38.9649 30.4526C38.7127 30.1662 38.4029 29.9363 38.0558 29.7778C37.7087 29.6192 37.3321 29.5357 36.9505 29.5326C36.5689 29.5294 36.191 29.6068 35.8413 29.7596C35.7892 29.782 35.7401 29.8058 35.6925 29.8325C32.6421 31.3205 30.0724 33.8501 28.3567 36.6163C28.0671 37.0855 27.8017 37.5611 27.5607 38.0432C27.5313 38.094 27.5055 38.1467 27.4833 38.201C27.4059 38.3872 27.3694 38.5879 27.3763 38.7895C27.3832 38.991 27.4332 39.1888 27.5231 39.3693C27.6129 39.5499 27.7405 39.7091 27.8972 39.8361C28.0538 39.9631 28.2359 40.055 28.4311 40.1056C28.4799 40.1193 28.5297 40.1292 28.5799 40.1354C29.0245 40.229 29.464 40.3452 29.8968 40.4835C34.2685 41.8867 37.8754 45.5129 39.8083 49.3475C39.921 49.5794 40.1087 49.7666 40.341 49.8787C40.5721 49.9906 40.8345 50.0205 41.085 49.9635C41.3376 49.9071 41.5636 49.7666 41.7258 49.5649C41.888 49.3632 41.9769 49.1123 41.9777 48.8535C42.1267 42.9528 41.2961 37.0684 39.5196 31.4396Z" fill="#F3EEEA"/>
<path d="M35.7118 22.4418C33.3384 18.0129 30.3491 13.9429 26.833 10.3534L26.8092 10.3296C26.5958 10.1169 26.3069 9.99756 26.0057 9.99756C25.7045 9.99756 25.4155 10.1169 25.2022 10.3296C21.6711 13.9374 18.672 18.0298 16.2951 22.4834L16.2638 22.5415C16.0982 22.8658 15.9996 23.2203 15.974 23.5836C15.9484 23.9469 15.9962 24.3117 16.1147 24.6561C16.2332 25.0006 16.4198 25.3176 16.6635 25.5883C16.9072 25.859 17.203 26.0778 17.5331 26.2317V26.2391C20.3603 27.5247 22.8764 29.5127 24.9209 31.819C25.0529 31.9642 25.2137 32.0801 25.393 32.1595C25.5724 32.2388 25.7664 32.2798 25.9625 32.2798C26.1587 32.2798 26.3526 32.2388 26.532 32.1595C26.7114 32.0801 26.8722 31.9642 27.0041 31.819C29.0441 29.4918 31.5707 27.4964 34.4083 26.2138L34.4768 26.184C34.981 25.9481 35.4004 25.5626 35.6778 25.0799C35.9552 24.5972 36.0773 24.0408 36.0272 23.4863C35.995 23.1185 35.8871 22.7614 35.7103 22.4373L35.7118 22.4418Z" fill="#F3EEEA"/>
<path d="M61.4091 35.8782L59.1964 31.8607H58.5759V35.8782H55.9854V25.2421H60.3332C61.0705 25.2227 61.8022 25.3755 62.47 25.6885C63.0299 25.9463 63.4972 26.3696 63.8092 26.9012C64.105 27.417 64.2567 28.003 64.2481 28.5975C64.2567 29.2779 64.0442 29.9426 63.6425 30.4917C63.2457 31.0463 62.6595 31.4401 61.8837 31.6732L64.3389 35.8857L61.4091 35.8782ZM58.5819 30.0305H60.1874C60.6626 30.0305 61.0162 29.9139 61.2483 29.6808C61.374 29.5512 61.4713 29.3967 61.5338 29.2274C61.5963 29.058 61.6227 28.8774 61.6114 28.6972C61.6211 28.5215 61.5937 28.3456 61.5312 28.1811C61.4686 28.0165 61.3723 27.8669 61.2483 27.7419C61.0162 27.5098 60.6626 27.3938 60.1874 27.3938H58.5759L58.5819 30.0305Z" fill="#F3EEEA"/>
<path d="M69.7166 36.0002C68.9366 36.0117 68.1661 35.8291 67.4742 35.469C66.8238 35.1197 66.2845 34.5949 65.9177 33.9542C65.531 33.2493 65.3375 32.4546 65.3568 31.6508C65.3393 30.8505 65.5382 30.0604 65.9326 29.3638C66.3003 28.7129 66.8473 28.1815 67.5084 27.8326C68.2046 27.4843 68.9723 27.303 69.7508 27.303C70.5293 27.303 71.297 27.4843 71.9932 27.8326C72.6543 28.1815 73.2013 28.7129 73.569 29.3638C73.9494 30.0695 74.1474 30.8591 74.1448 31.6609C74.1422 32.4626 73.9391 33.251 73.5541 33.9542C73.1798 34.6015 72.6271 35.1274 71.9619 35.469C71.2692 35.8297 70.4975 36.0123 69.7166 36.0002ZM69.7166 33.7578C69.9534 33.7614 70.1882 33.7145 70.4055 33.6204C70.6228 33.5262 70.8176 33.3869 70.9769 33.2117C71.33 32.8486 71.5066 32.3283 71.5066 31.6508C71.5066 30.9733 71.335 30.453 70.9918 30.0899C70.832 29.9181 70.6386 29.7811 70.4236 29.6874C70.2085 29.5937 69.9764 29.5454 69.7419 29.5454C69.5073 29.5454 69.2752 29.5937 69.0602 29.6874C68.8451 29.7811 68.6517 29.9181 68.492 30.0899C68.1586 30.4441 67.992 30.9644 67.992 31.6508C67.992 32.3373 68.1532 32.8576 68.4756 33.2117C68.6307 33.387 68.822 33.5265 69.0362 33.6208C69.2504 33.7151 69.4826 33.7618 69.7166 33.7578Z" fill="#F3EEEA"/>
<path d="M74.9944 31.6509C74.9761 30.8507 75.1588 30.0588 75.5256 29.3475C75.8707 28.7097 76.3912 28.1841 77.0255 27.8327C77.7057 27.4715 78.4666 27.2892 79.2367 27.303C80.2971 27.303 81.181 27.5807 81.8882 28.1362C82.5955 28.6918 83.0652 29.4744 83.2974 30.4843H80.5461C80.314 29.8385 79.8646 29.5151 79.198 29.5141C78.9771 29.5078 78.758 29.5556 78.5599 29.6533C78.3617 29.7511 78.1905 29.8959 78.0611 30.0751C77.7784 30.4391 77.6371 30.9644 77.6371 31.6509C77.6371 32.3373 77.7784 32.8675 78.0611 33.2415C78.1927 33.4173 78.3648 33.5587 78.5627 33.6538C78.7606 33.7489 78.9785 33.7948 79.198 33.7876C79.8646 33.7876 80.314 33.4642 80.5461 32.8174H83.3033C83.1239 33.7372 82.6247 34.5637 81.8942 35.1506C81.177 35.716 80.2931 35.9992 79.2426 36.0002C78.4724 36.0143 77.7113 35.8314 77.0315 35.469C76.3968 35.1181 75.8762 34.5923 75.5316 33.9543C75.1623 33.2436 74.9776 32.4515 74.9944 31.6509Z" fill="#F3EEEA"/>
<path d="M89.8562 35.8782L87.2805 32.3324V35.8782H84.6899V24.6663H87.2805V30.8637L89.8414 27.4235H93.0375L89.5229 31.6657L93.0688 35.8782H89.8562Z" fill="#F3EEEA"/>
<path d="M102.025 31.5154C102.025 31.7686 102.009 32.0215 101.979 32.2728H96.1238C96.1635 32.7985 96.3302 33.2023 96.6238 33.484C96.9262 33.7571 97.322 33.9036 97.7294 33.8932C98.3771 33.8932 98.8265 33.6204 99.0775 33.0748H101.836C101.69 33.6327 101.421 34.1509 101.049 34.5914C100.676 35.0319 100.21 35.3836 99.6846 35.6208C99.0977 35.8801 98.4617 36.0095 97.8202 36.0002C97.0499 36.0142 96.2888 35.8314 95.609 35.469C94.9677 35.1214 94.441 34.5952 94.0927 33.9542C93.717 33.2457 93.5294 32.4526 93.5481 31.6508C93.5301 30.8509 93.7122 30.0591 94.0779 29.3474C94.4264 28.7072 94.9524 28.1812 95.5926 27.8326C96.2797 27.4697 97.0477 27.2874 97.8246 27.3029C98.5796 27.2929 99.325 27.4725 99.9926 27.8252C100.622 28.1592 101.139 28.6703 101.481 29.2953C101.855 29.9744 102.043 30.7403 102.025 31.5154ZM99.3736 30.8324C99.3816 30.6332 99.345 30.4347 99.2665 30.2514C99.188 30.0681 99.0695 29.9046 98.9198 29.773C98.6014 29.5205 98.2077 29.3817 97.8014 29.3788C97.3951 29.3758 96.9994 29.5088 96.6774 29.7566C96.3702 30.0366 96.176 30.4192 96.1313 30.8324H99.3736Z" fill="#F3EEEA"/>
<path d="M108.103 33.6821V35.8784H106.785C105.847 35.8784 105.115 35.6512 104.589 35.1969C104.063 34.7425 103.801 33.9901 103.802 32.9396V29.5753H102.771V27.4237H103.802V25.3628H106.391V27.4237H108.087V29.5753H106.391V32.9694C106.381 33.068 106.392 33.1676 106.424 33.2617C106.455 33.3558 106.506 33.4422 106.572 33.5155C106.747 33.6425 106.963 33.7018 107.178 33.6821H108.103Z" fill="#F3EEEA"/>
<path d="M113.396 35.9839C112.68 35.9965 111.968 35.868 111.301 35.606C110.712 35.3747 110.198 34.9867 109.813 34.484C109.441 33.9626 109.24 33.3389 109.237 32.6985H111.996C112.013 33.0422 112.159 33.3668 112.405 33.6076C112.661 33.8154 112.985 33.9213 113.314 33.9052C113.638 33.9235 113.958 33.8329 114.224 33.6478C114.333 33.5584 114.421 33.4445 114.478 33.3153C114.536 33.1861 114.563 33.0452 114.557 32.9038C114.56 32.782 114.537 32.6608 114.49 32.5484C114.443 32.436 114.372 32.335 114.283 32.2521C114.095 32.07 113.874 31.926 113.631 31.828C113.275 31.6811 112.911 31.5549 112.541 31.45C111.965 31.2801 111.403 31.0672 110.859 30.8132C110.416 30.5939 110.031 30.272 109.737 29.8743C109.425 29.4606 109.269 28.92 109.269 28.2524C109.269 27.2604 109.627 26.4876 110.344 25.9341C111.062 25.3806 111.996 25.0978 113.148 25.0859C114.319 25.0859 115.262 25.3687 115.975 25.9341C116.688 26.4995 117.076 27.2787 117.139 28.2717H114.335C114.333 28.1187 114.298 27.968 114.232 27.8297C114.167 27.6914 114.072 27.5686 113.956 27.4697C113.705 27.2634 113.387 27.1574 113.063 27.1721C112.787 27.1595 112.517 27.2514 112.306 27.4295C112.207 27.5188 112.13 27.6294 112.08 27.7529C112.03 27.8763 112.009 28.0095 112.018 28.1423C112.017 28.308 112.061 28.471 112.147 28.6129C112.232 28.7548 112.356 28.8701 112.503 28.9458C112.985 29.2046 113.493 29.4125 114.018 29.5663C114.588 29.7514 115.145 29.9741 115.685 30.2329C116.125 30.4505 116.509 30.7667 116.807 31.1569C117.134 31.6095 117.3 32.1596 117.275 32.7178C117.282 33.302 117.119 33.8756 116.807 34.3695C116.481 34.8824 116.017 35.2921 115.467 35.5509C114.82 35.8546 114.111 36.0029 113.396 35.9839Z" fill="#F3EEEA"/>
<path d="M122.717 36.0002C121.937 36.0118 121.167 35.8293 120.475 35.469C119.823 35.1203 119.282 34.5954 118.914 33.9542C118.528 33.2489 118.335 32.4544 118.354 31.6508C118.337 30.8508 118.536 30.0609 118.929 29.3638C119.297 28.7132 119.844 28.1819 120.504 27.8326C121.201 27.4843 121.968 27.303 122.747 27.303C123.525 27.303 124.293 27.4843 124.989 27.8326C125.651 28.1806 126.198 28.7123 126.565 29.3638C126.945 30.0695 127.143 30.8592 127.141 31.6609C127.138 32.4626 126.935 33.251 126.55 33.9542C126.176 34.6014 125.624 35.1273 124.959 35.469C124.268 35.8293 123.497 36.0118 122.717 36.0002ZM122.717 33.7578C122.953 33.7612 123.188 33.7143 123.405 33.6202C123.621 33.526 123.816 33.3868 123.974 33.2117C124.329 32.8486 124.506 32.3283 124.506 31.6508C124.506 30.9733 124.334 30.453 123.989 30.0899C123.834 29.9146 123.642 29.7751 123.428 29.6811C123.213 29.587 122.981 29.5407 122.747 29.5453C122.51 29.5398 122.275 29.5857 122.058 29.6797C121.841 29.7737 121.647 29.9137 121.489 30.0899C121.156 30.4441 120.99 30.9644 120.99 31.6508C120.99 32.3373 121.151 32.8576 121.475 33.2117C121.63 33.3871 121.821 33.5268 122.036 33.6211C122.25 33.7154 122.483 33.762 122.717 33.7578Z" fill="#F3EEEA"/>
<path d="M132.758 29.5753H131.363V35.8784H128.773V29.5753H127.834V27.4236H128.773V27.1811C128.773 26.1415 129.07 25.3539 129.666 24.8182C130.261 24.2825 131.135 24.0097 132.288 23.9998C132.429 23.9975 132.571 24.0025 132.712 24.0147V26.2124C132.216 26.1812 131.868 26.2526 131.67 26.4237C131.472 26.5948 131.372 26.9043 131.372 27.3478V27.4236H132.767L132.758 29.5753Z" fill="#F3EEEA"/>
<path d="M138.687 33.6821V35.8784H137.369C136.43 35.8784 135.698 35.6512 135.173 35.1969C134.648 34.7425 134.385 33.9901 134.384 32.9396V29.5753H133.354V27.4237H134.384V25.3628H136.976V27.4237H138.68V29.5753H136.984V32.9694C136.974 33.068 136.985 33.1676 137.016 33.2617C137.048 33.3558 137.098 33.4422 137.165 33.5155C137.34 33.6425 137.555 33.7018 137.771 33.6821H138.687Z" fill="#F3EEEA"/>
</g>
<defs>
<clipPath id="clip0_549_1926">
<rect width="148.798" height="60" fill="white"/>
</clipPath>
</defs>
</svg>
